<svg id="visual" viewBox="0 0 960 540" width="960" height="540" xmlns="http://www.w3.org/2000/svg" xmlns:xlink="http://www.w3.org/1999/xlink" version="1.1"><g transform="translate(-9.56306851834384 527.0127735079373)"><path d="M112.4 -211.8C136.7 -180.5 141.4 -132.5 175.1 -94.4C208.8 -56.3 271.4 -28.1 283.5 7C295.7 42.2 257.4 84.3 229.7 132.7C201.9 181 184.7 235.6 148.2 261.8C111.7 288.1 55.8 286 2.3 282.1C-51.3 278.2 -102.7 272.5 -143.2 248.6C-183.8 224.7 -213.6 182.6 -228.7 138.1C-243.9 93.7 -244.5 46.8 -252.6 -4.7C-260.8 -56.2 -276.5 -112.5 -258.2 -151.5C-239.9 -190.4 -187.4 -212.1 -138.7 -229.3C-90 -246.6 -45 -259.3 -0.5 -258.4C44 -257.5 88 -243.1 112.4 -211.8" fill="#0066FF"></path></g></svg>