<svg id="visual" viewBox="0 0 960 540" width="960" height="540" xmlns="http://www.w3.org/2000/svg" xmlns:xlink="http://www.w3.org/1999/xlink" version="1.1"><g transform="translate(914.4120984994876 557.3170632473391)"><path d="M256.6 -399.5C334.6 -399.5 401.1 -334.7 421.3 -257.4C441.4 -180 415.2 -90 376.4 -22.4C337.6 45.2 286.1 90.3 243.8 129.3C201.5 168.3 168.2 201.1 129.1 232C90 262.9 45 291.9 -17.3 322C-79.7 352 -159.3 383 -198.3 352C-237.3 321 -235.6 228 -247.6 159C-259.6 90 -285.3 45 -307.8 -13C-330.3 -71 -349.6 -142 -326.9 -192.4C-304.1 -242.7 -239.3 -272.5 -177.8 -282C-116.3 -291.5 -58.2 -280.8 15.6 -307.7C89.3 -334.7 178.7 -399.5 256.6 -399.5" fill="none" stroke="#0066FF" stroke-width="6"></path></g></svg>