<svg id="visual" viewBox="0 0 960 540" width="960" height="540" xmlns="http://www.w3.org/2000/svg" xmlns:xlink="http://www.w3.org/1999/xlink" version="1.1"><path d="M0 353L56 355L113 352L169 363L226 358L282 356L339 354L395 364L452 360L508 358L565 357L621 353L678 358L734 363L791 363L847 358L904 365L960 361L960 541L904 541L847 541L791 541L734 541L678 541L621 541L565 541L508 541L452 541L395 541L339 541L282 541L226 541L169 541L113 541L56 541L0 541Z" fill="#212529"></path><path d="M0 378L56 387L113 378L169 387L226 389L282 382L339 388L395 385L452 378L508 390L565 385L621 387L678 382L734 384L791 385L847 385L904 378L960 380L960 541L904 541L847 541L791 541L734 541L678 541L621 541L565 541L508 541L452 541L395 541L339 541L282 541L226 541L169 541L113 541L56 541L0 541Z" fill="#74787a"></path><path d="M0 415L56 407L113 405L169 404L226 411L282 412L339 406L395 411L452 404L508 403L565 412L621 405L678 413L734 415L791 405L847 405L904 405L960 405L960 541L904 541L847 541L791 541L734 541L678 541L621 541L565 541L508 541L452 541L395 541L339 541L282 541L226 541L169 541L113 541L56 541L0 541Z" fill="#d5d7d7"></path><path d="M0 435L56 433L113 437L169 440L226 429L282 440L339 435L395 439L452 431L508 440L565 432L621 434L678 441L734 438L791 440L847 438L904 440L960 438L960 541L904 541L847 541L791 541L734 541L678 541L621 541L565 541L508 541L452 541L395 541L339 541L282 541L226 541L169 541L113 541L56 541L0 541Z" fill="#ffffff"></path><path d="M0 457L56 462L113 463L169 463L226 464L282 463L339 458L395 455L452 460L508 465L565 462L621 462L678 466L734 455L791 460L847 456L904 460L960 458L960 541L904 541L847 541L791 541L734 541L678 541L621 541L565 541L508 541L452 541L395 541L339 541L282 541L226 541L169 541L113 541L56 541L0 541Z" fill="#d5d7d7"></path><path d="M0 485L56 483L113 483L169 485L226 491L282 486L339 485L395 484L452 491L508 489L565 488L621 488L678 483L734 490L791 485L847 485L904 484L960 481L960 541L904 541L847 541L791 541L734 541L678 541L621 541L565 541L508 541L452 541L395 541L339 541L282 541L226 541L169 541L113 541L56 541L0 541Z" fill="#74787a"></path><path d="M0 512L56 510L113 512L169 509L226 511L282 514L339 510L395 512L452 507L508 512L565 507L621 517L678 514L734 516L791 512L847 509L904 517L960 508L960 541L904 541L847 541L791 541L734 541L678 541L621 541L565 541L508 541L452 541L395 541L339 541L282 541L226 541L169 541L113 541L56 541L0 541Z" fill="#212529"></path></svg>