<svg id="visual" viewBox="0 0 960 540" width="960" height="540" xmlns="http://www.w3.org/2000/svg" xmlns:xlink="http://www.w3.org/1999/xlink" version="1.1"><path d="M0 362L192 391L384 359L576 379L768 389L960 369L960 541L768 541L576 541L384 541L192 541L0 541Z" fill="#212529"></path><path d="M0 411L192 422L384 397L576 427L768 399L960 393L960 541L768 541L576 541L384 541L192 541L0 541Z" fill="#143a5c"></path><path d="M0 457L192 450L384 437L576 449L768 453L960 448L960 541L768 541L576 541L384 541L192 541L0 541Z" fill="#004c92"></path><path d="M0 488L192 482L384 477L576 482L768 458L960 478L960 541L768 541L576 541L384 541L192 541L0 541Z" fill="#005bc9"></path><path d="M0 491L192 510L384 510L576 501L768 517L960 503L960 541L768 541L576 541L384 541L192 541L0 541Z" fill="#0066ff"></path></svg>