<svg id="visual" viewBox="0 0 960 540" width="960" height="540" xmlns="http://www.w3.org/2000/svg" xmlns:xlink="http://www.w3.org/1999/xlink" version="1.1"><path d="M0 407L192 428L384 404L576 419L768 427L960 411L960 541L768 541L576 541L384 541L192 541L0 541Z" fill="#001122"></path><path d="M0 443L192 451L384 432L576 455L768 434L960 430L960 541L768 541L576 541L384 541L192 541L0 541Z" fill="#002955"></path><path d="M0 478L192 472L384 462L576 472L768 475L960 471L960 541L768 541L576 541L384 541L192 541L0 541Z" fill="#003e8c"></path><path d="M0 501L192 497L384 493L576 496L768 478L960 493L960 541L768 541L576 541L384 541L192 541L0 541Z" fill="#0052c5"></path><path d="M0 503L192 517L384 517L576 511L768 523L960 512L960 541L768 541L576 541L384 541L192 541L0 541Z" fill="#0066ff"></path></svg>