<svg id="visual" viewBox="0 0 960 540" width="960" height="540" xmlns="http://www.w3.org/2000/svg" xmlns:xlink="http://www.w3.org/1999/xlink" version="1.1"><path d="M0 402L137 393L274 373L411 396L549 392L686 402L823 402L960 381L960 541L823 541L686 541L549 541L411 541L274 541L137 541L0 541Z" fill="#212529"></path><path d="M0 409L137 393L274 395L411 405L549 417L686 422L823 415L960 407L960 541L823 541L686 541L549 541L411 541L274 541L137 541L0 541Z" fill="#474b4e"></path><path d="M0 426L137 435L274 423L411 437L549 429L686 438L823 446L960 445L960 541L823 541L686 541L549 541L411 541L274 541L137 541L0 541Z" fill="#717477"></path><path d="M0 463L137 456L274 458L411 466L549 452L686 469L823 470L960 461L960 541L823 541L686 541L549 541L411 541L274 541L137 541L0 541Z" fill="#9ea0a2"></path><path d="M0 494L137 476L274 487L411 488L549 493L686 475L823 476L960 483L960 541L823 541L686 541L549 541L411 541L274 541L137 541L0 541Z" fill="#cdcfcf"></path><path d="M0 507L137 511L274 513L411 499L549 503L686 513L823 514L960 507L960 541L823 541L686 541L549 541L411 541L274 541L137 541L0 541Z" fill="#ffffff"></path></svg>