<svg id="visual" viewBox="0 0 960 540" width="960" height="540" xmlns="http://www.w3.org/2000/svg" xmlns:xlink="http://www.w3.org/1999/xlink" version="1.1"><path d="M0 443L137 432L274 430L411 423L549 423L686 442L823 427L960 432L960 541L823 541L686 541L549 541L411 541L274 541L137 541L0 541Z" fill="#212529"></path><path d="M0 448L137 461L274 438L411 441L549 464L686 465L823 452L960 454L960 541L823 541L686 541L549 541L411 541L274 541L137 541L0 541Z" fill="#515558"></path><path d="M0 468L137 468L274 479L411 482L549 464L686 472L823 468L960 473L960 541L823 541L686 541L549 541L411 541L274 541L137 541L0 541Z" fill="#878a8c"></path><path d="M0 500L137 482L274 500L411 490L549 488L686 488L823 494L960 496L960 541L823 541L686 541L549 541L411 541L274 541L137 541L0 541Z" fill="#c1c3c4"></path><path d="M0 512L137 517L274 515L411 516L549 509L686 512L823 505L960 508L960 541L823 541L686 541L549 541L411 541L274 541L137 541L0 541Z" fill="#ffffff"></path></svg>