<svg id="visual" viewBox="0 0 960 540" width="960" height="540" xmlns="http://www.w3.org/2000/svg" xmlns:xlink="http://www.w3.org/1999/xlink" version="1.1"><path d="M0 521L16 513.5C32 506 64 491 96 472.7C128 454.3 160 432.7 192 409C224 385.3 256 359.7 288 360.7C320 361.7 352 389.3 384 409.3C416 429.3 448 441.7 480 425.3C512 409 544 364 576 349.8C608 335.7 640 352.3 672 371.3C704 390.3 736 411.7 768 434.5C800 457.3 832 481.7 864 465.8C896 450 928 394 944 366L960 338" fill="none" stroke-linecap="round" stroke-linejoin="miter" stroke="#86898c" stroke-width="7"></path></svg>