<svg id="visual" viewBox="0 0 960 540" width="960" height="540" xmlns="http://www.w3.org/2000/svg" xmlns:xlink="http://www.w3.org/1999/xlink" version="1.1"><path d="M0 256L16 277.5C32 299 64 342 96 365.3C128 388.7 160 392.3 192 381C224 369.7 256 343.3 288 322.5C320 301.7 352 286.3 384 294.7C416 303 448 335 480 332.5C512 330 544 293 576 289.8C608 286.7 640 317.3 672 337.3C704 357.3 736 366.7 768 374.2C800 381.7 832 387.3 864 365.3C896 343.3 928 293.7 944 268.8L960 244" fill="none" stroke-linecap="round" stroke-linejoin="miter" stroke="#596576" stroke-width="7"></path></svg>