<svg id="visual" viewBox="0 0 900 600" width="900" height="600" xmlns="http://www.w3.org/2000/svg" xmlns:xlink="http://www.w3.org/1999/xlink" version="1.1"><rect x="0" y="0" width="900" height="600" fill="#212529"></rect><defs><linearGradient id="grad1_0" x1="33.3%" y1="0%" x2="100%" y2="100%"><stop offset="20%" stop-color="#423cfa" stop-opacity="1"></stop><stop offset="80%" stop-color="#423cfa" stop-opacity="1"></stop></linearGradient></defs><defs><linearGradient id="grad1_1" x1="33.3%" y1="0%" x2="100%" y2="100%"><stop offset="20%" stop-color="#423cfa" stop-opacity="1"></stop><stop offset="80%" stop-color="#0047ce" stop-opacity="1"></stop></linearGradient></defs><defs><linearGradient id="grad1_2" x1="33.3%" y1="0%" x2="100%" y2="100%"><stop offset="20%" stop-color="#004198" stop-opacity="1"></stop><stop offset="80%" stop-color="#0047ce" stop-opacity="1"></stop></linearGradient></defs><defs><linearGradient id="grad1_3" x1="33.3%" y1="0%" x2="100%" y2="100%"><stop offset="20%" stop-color="#004198" stop-opacity="1"></stop><stop offset="80%" stop-color="#00355f" stop-opacity="1"></stop></linearGradient></defs><defs><linearGradient id="grad1_4" x1="33.3%" y1="0%" x2="100%" y2="100%"><stop offset="20%" stop-color="#212529" stop-opacity="1"></stop><stop offset="80%" stop-color="#00355f" stop-opacity="1"></stop></linearGradient></defs><defs><linearGradient id="grad2_0" x1="0%" y1="0%" x2="66.7%" y2="100%"><stop offset="20%" stop-color="#423cfa" stop-opacity="1"></stop><stop offset="80%" stop-color="#423cfa" stop-opacity="1"></stop></linearGradient></defs><defs><linearGradient id="grad2_1" x1="0%" y1="0%" x2="66.7%" y2="100%"><stop offset="20%" stop-color="#0047ce" stop-opacity="1"></stop><stop offset="80%" stop-color="#423cfa" stop-opacity="1"></stop></linearGradient></defs><defs><linearGradient id="grad2_2" x1="0%" y1="0%" x2="66.7%" y2="100%"><stop offset="20%" stop-color="#0047ce" stop-opacity="1"></stop><stop offset="80%" stop-color="#004198" stop-opacity="1"></stop></linearGradient></defs><defs><linearGradient id="grad2_3" x1="0%" y1="0%" x2="66.7%" y2="100%"><stop offset="20%" stop-color="#00355f" stop-opacity="1"></stop><stop offset="80%" stop-color="#004198" stop-opacity="1"></stop></linearGradient></defs><defs><linearGradient id="grad2_4" x1="0%" y1="0%" x2="66.7%" y2="100%"><stop offset="20%" stop-color="#00355f" stop-opacity="1"></stop><stop offset="80%" stop-color="#212529" stop-opacity="1"></stop></linearGradient></defs><g transform="translate(900, 0)"><path d="M0 486.7C-66 483.1 -132.1 479.4 -186.3 449.7C-240.5 420 -282.8 364.3 -311.8 311.8C-340.8 259.4 -356.5 210.2 -383.4 158.8C-410.3 107.4 -448.5 53.7 -486.7 0L0 0Z" fill="#132d43"></path><path d="M0 389.4C-52.8 386.5 -105.7 383.5 -149 359.8C-192.4 336 -226.3 291.4 -249.5 249.5C-272.7 207.5 -285.2 168.2 -306.7 127.1C-328.3 85.9 -358.8 43 -389.4 0L0 0Z" fill="#003c7b"></path><path d="M0 292C-39.6 289.8 -79.2 287.6 -111.8 269.8C-144.3 252 -169.7 218.6 -187.1 187.1C-204.5 155.6 -213.9 126.1 -230 95.3C-246.2 64.4 -269.1 32.2 -292 0L0 0Z" fill="#0045b4"></path><path d="M0 194.7C-26.4 193.2 -52.8 191.8 -74.5 179.9C-96.2 168 -113.1 145.7 -124.7 124.7C-136.3 103.8 -142.6 84.1 -153.4 63.5C-164.1 43 -179.4 21.5 -194.7 0L0 0Z" fill="#0044e6"></path><path d="M0 97.3C-13.2 96.6 -26.4 95.9 -37.3 89.9C-48.1 84 -56.6 72.9 -62.4 62.4C-68.2 51.9 -71.3 42 -76.7 31.8C-82.1 21.5 -89.7 10.7 -97.3 0L0 0Z" fill="#423cfa"></path></g><g transform="translate(0, 600)"><path d="M0 -486.7C49.9 -439.5 99.8 -392.3 151.9 -366.8C204 -341.2 258.4 -337.4 312.5 -312.5C366.7 -287.7 420.7 -241.9 449.7 -186.3C478.7 -130.7 482.7 -65.3 486.7 0L0 0Z" fill="#132d43"></path><path d="M0 -389.4C39.9 -351.6 79.8 -313.9 121.5 -293.4C163.2 -273 206.7 -269.9 250 -250C293.4 -230.2 336.6 -193.5 359.8 -149C383 -104.5 386.2 -52.3 389.4 0L0 0Z" fill="#003c7b"></path><path d="M0 -292C29.9 -263.7 59.9 -235.4 91.2 -220.1C122.4 -204.7 155 -202.4 187.5 -187.5C220 -172.6 252.4 -145.1 269.8 -111.8C287.2 -78.4 289.6 -39.2 292 0L0 0Z" fill="#0045b4"></path><path d="M0 -194.7C20 -175.8 39.9 -156.9 60.8 -146.7C81.6 -136.5 103.4 -135 125 -125C146.7 -115.1 168.3 -96.7 179.9 -74.5C191.5 -52.3 193.1 -26.1 194.7 0L0 0Z" fill="#0044e6"></path><path d="M0 -97.3C10 -87.9 20 -78.5 30.4 -73.4C40.8 -68.2 51.7 -67.5 62.5 -62.5C73.3 -57.5 84.1 -48.4 89.9 -37.3C95.7 -26.1 96.5 -13.1 97.3 0L0 0Z" fill="#423cfa"></path></g></svg>